<svg xmlns="http://www.w3.org/2000/svg" viewBox="0 0 14 13" width="14" height="13">
	<style>
		tspan { white-space:pre }
		.shp0 { fill: #333f4b } 
	</style>
	<path id="google +" class="shp0" d="M7.63 1C7.63 1 5.21 1 4.41 1C2.97 1 1.61 2.16 1.61 3.5C1.61 4.87 2.59 5.97 4.06 5.97C4.16 5.97 4.26 5.97 4.36 5.96C4.26 6.16 4.19 6.37 4.19 6.6C4.19 6.98 4.39 7.29 4.63 7.54C4.45 7.54 4.27 7.55 4.07 7.55C2.29 7.55 0.91 8.75 0.91 10C0.91 11.23 2.42 12 4.21 12C6.25 12 7.37 10.78 7.37 9.55C7.37 8.56 7.1 7.97 6.25 7.33C5.95 7.11 5.4 6.58 5.4 6.27C5.4 5.91 5.5 5.73 6.02 5.3C6.55 4.86 6.93 4.24 6.93 3.52C6.93 2.66 6.56 1.83 5.89 1.55L6.91 1.55L7.63 1ZM6.5 9.33C6.53 9.45 6.54 9.56 6.54 9.69C6.54 10.68 5.94 11.46 4.2 11.46C2.96 11.46 2.07 10.63 2.07 9.63C2.07 8.66 3.18 7.85 4.42 7.86C4.7 7.87 4.97 7.91 5.22 8C5.89 8.49 6.37 8.77 6.5 9.33ZM4.53 5.62C3.7 5.6 2.91 4.64 2.76 3.49C2.62 2.34 3.18 1.46 4.01 1.48C4.84 1.51 5.62 2.43 5.77 3.59C5.91 4.74 5.35 5.65 4.53 5.62ZM10.91 3.44L10.91 1L10.14 1L10.14 3.44L7.83 3.44L7.83 4.25L10.14 4.25L10.14 6.7L10.91 6.7L10.91 4.25L13.22 4.25L13.22 3.44L10.91 3.44Z" />
</svg>