<svg xmlns="http://www.w3.org/2000/svg" viewBox="0 0 11 12" width="11" height="12">
	<style>
		tspan { white-space:pre }
		.shp0 { fill: #333f4b } 
	</style>
	<path id="instegram" class="shp0" d="M9.2 1L1.94 1C0.95 1 0.14 1.82 0.14 2.83L0.14 10.17C0.14 11.18 0.95 12 1.94 12L9.2 12C10.19 12 11 11.18 11 10.17L11 2.83C11 1.82 10.19 1 9.2 1ZM3.62 5.81L7.52 5.81C7.6 6.03 7.64 6.26 7.64 6.5C7.64 7.65 6.71 8.59 5.57 8.59C4.43 8.59 3.5 7.65 3.5 6.5C3.5 6.26 3.54 6.03 3.62 5.81ZM9.64 5.81L9.64 8.56L9.64 9.94C9.64 10.32 9.34 10.62 8.96 10.62L2.18 10.62C1.8 10.62 1.5 10.32 1.5 9.94L1.5 8.56L1.5 5.81L1.5 5.81L2.56 5.81C2.51 6.03 2.49 6.26 2.49 6.5C2.49 8.22 3.87 9.63 5.57 9.63C7.27 9.63 8.66 8.22 8.66 6.5C8.66 6.26 8.63 6.03 8.58 5.81L9.64 5.81L9.64 5.81ZM9.64 3.41C9.64 3.59 9.49 3.75 9.3 3.75L8.62 3.75C8.44 3.75 8.29 3.59 8.29 3.41L8.29 2.72C8.29 2.53 8.44 2.37 8.62 2.37L9.3 2.37C9.49 2.37 9.64 2.53 9.64 2.72L9.64 3.41Z" />
</svg>