<svg xmlns="http://www.w3.org/2000/svg" viewBox="0 0 14 13" width="14" height="13">
	<style>
		tspan { white-space:pre }
		.shp0 { fill: #333f4b } 
	</style>
	<path id="twitter" class="shp0" d="M13.54,2.3c-0.48,0.22 -0.99,0.37 -1.54,0.44c0.55,-0.34 0.98,-0.89 1.18,-1.54c-0.52,0.32 -1.09,0.55 -1.7,0.67c-0.49,-0.54 -1.18,-0.88 -1.95,-0.88c-1.48,0 -2.67,1.24 -2.67,2.78c0,0.22 0.02,0.43 0.07,0.63c-2.22,-0.12 -4.19,-1.22 -5.51,-2.9c-0.23,0.41 -0.36,0.89 -0.36,1.4c0,0.96 0.47,1.81 1.19,2.31c-0.44,-0.01 -0.85,-0.14 -1.21,-0.35c0,0.01 0,0.02 0,0.04c0,1.35 0.92,2.47 2.14,2.72c-0.22,0.06 -0.46,0.1 -0.7,0.1c-0.17,0 -0.34,-0.02 -0.5,-0.05c0.34,1.1 1.33,1.91 2.5,1.93c-0.91,0.75 -2.07,1.19 -3.32,1.19c-0.22,0 -0.43,-0.01 -0.64,-0.04c1.18,0.79 2.59,1.25 4.1,1.25c4.92,0 7.61,-4.23 7.61,-7.9c0,-0.12 0,-0.24 -0.01,-0.36c0.52,-0.39 0.98,-0.88 1.33,-1.44z" />
</svg>